<svg id="visual" viewBox="0 0 900 600" width="900" height="600" xmlns="http://www.w3.org/2000/svg" xmlns:xlink="http://www.w3.org/1999/xlink" version="1.1"><rect x="0" y="0" width="900" height="600" fill="#001220"></rect><path d="M0 374L21.5 384.3C43 394.7 86 415.3 128.8 419.7C171.7 424 214.3 412 257.2 403.5C300 395 343 390 385.8 392.7C428.7 395.3 471.3 405.7 514.2 404.5C557 403.3 600 390.7 642.8 384.5C685.7 378.3 728.3 378.7 771.2 380.8C814 383 857 387 878.5 389L900 391L900 601L878.5 601C857 601 814 601 771.2 601C728.3 601 685.7 601 642.8 601C600 601 557 601 514.2 601C471.3 601 428.7 601 385.8 601C343 601 300 601 257.2 601C214.3 601 171.7 601 128.8 601C86 601 43 601 21.5 601L0 601Z" fill="#001122"></path><path d="M0 449L21.5 445.3C43 441.7 86 434.3 128.8 432.3C171.7 430.3 214.3 433.7 257.2 439.7C300 445.7 343 454.3 385.8 457.3C428.7 460.3 471.3 457.7 514.2 446C557 434.3 600 413.7 642.8 417.3C685.7 421 728.3 449 771.2 461C814 473 857 469 878.5 467L900 465L900 601L878.5 601C857 601 814 601 771.2 601C728.3 601 685.7 601 642.8 601C600 601 557 601 514.2 601C471.3 601 428.7 601 385.8 601C343 601 300 601 257.2 601C214.3 601 171.7 601 128.8 601C86 601 43 601 21.5 601L0 601Z" fill="#002a54"></path><path d="M0 462L21.5 469.8C43 477.7 86 493.3 128.8 492.7C171.7 492 214.3 475 257.2 473.3C300 471.7 343 485.3 385.8 488C428.7 490.7 471.3 482.3 514.2 482.7C557 483 600 492 642.8 496.5C685.7 501 728.3 501 771.2 498.8C814 496.7 857 492.3 878.5 490.2L900 488L900 601L878.5 601C857 601 814 601 771.2 601C728.3 601 685.7 601 642.8 601C600 601 557 601 514.2 601C471.3 601 428.7 601 385.8 601C343 601 300 601 257.2 601C214.3 601 171.7 601 128.8 601C86 601 43 601 21.5 601L0 601Z" fill="#00418a"></path><path d="M0 534L21.5 525.8C43 517.7 86 501.3 128.8 501.3C171.7 501.3 214.3 517.7 257.2 522C300 526.3 343 518.7 385.8 515.8C428.7 513 471.3 515 514.2 512.7C557 510.3 600 503.7 642.8 504.2C685.7 504.7 728.3 512.3 771.2 513.2C814 514 857 508 878.5 505L900 502L900 601L878.5 601C857 601 814 601 771.2 601C728.3 601 685.7 601 642.8 601C600 601 557 601 514.2 601C471.3 601 428.7 601 385.8 601C343 601 300 601 257.2 601C214.3 601 171.7 601 128.8 601C86 601 43 601 21.5 601L0 601Z" fill="#0058c2"></path><path d="M0 546L21.5 543.5C43 541 86 536 128.8 538.7C171.7 541.3 214.3 551.7 257.2 553.5C300 555.3 343 548.7 385.8 544.2C428.7 539.7 471.3 537.3 514.2 537.7C557 538 600 541 642.8 543C685.7 545 728.3 546 771.2 544.8C814 543.7 857 540.3 878.5 538.7L900 537L900 601L878.5 601C857 601 814 601 771.2 601C728.3 601 685.7 601 642.8 601C600 601 557 601 514.2 601C471.3 601 428.7 601 385.8 601C343 601 300 601 257.2 601C214.3 601 171.7 601 128.8 601C86 601 43 601 21.5 601L0 601Z" fill="#0d6efd"></path></svg>