<svg id="visual" viewBox="0 0 900 600" width="900" height="600" xmlns="http://www.w3.org/2000/svg" xmlns:xlink="http://www.w3.org/1999/xlink" version="1.1"><g stroke-width="1" stroke-linejoin="bevel"><path d="M501 308L537 364L593 282Z" fill="#00101c" stroke="#00101c"></path><path d="M593 282L487 227L501 308Z" fill="#19435d" stroke="#19435d"></path><path d="M537 364L590 421L593 282Z" fill="#15384f" stroke="#15384f"></path><path d="M698 320L630 225L593 282Z" fill="#15384f" stroke="#15384f"></path><path d="M593 282L630 225L487 227Z" fill="#19435d" stroke="#19435d"></path><path d="M590 421L698 320L593 282Z" fill="#0c2435" stroke="#0c2435"></path><path d="M487 227L409 263L501 308Z" fill="#19435d" stroke="#19435d"></path><path d="M411 439L523 467L537 364Z" fill="#15384f" stroke="#15384f"></path><path d="M537 364L523 467L590 421Z" fill="#205a7a" stroke="#205a7a"></path><path d="M411 439L537 364L501 308Z" fill="#19435d" stroke="#19435d"></path><path d="M487 227L420 217L409 263Z" fill="#081a28" stroke="#081a28"></path><path d="M465 115L420 217L487 227Z" fill="#246688" stroke="#246688"></path><path d="M698 320L683 203L630 225Z" fill="#1d4e6b" stroke="#1d4e6b"></path><path d="M630 225L609 119L487 227Z" fill="#0c2435" stroke="#0c2435"></path><path d="M590 421L732 361L698 320Z" fill="#1d4e6b" stroke="#1d4e6b"></path><path d="M698 320L802 222L683 203Z" fill="#19435d" stroke="#19435d"></path><path d="M712 530L732 361L590 421Z" fill="#205a7a" stroke="#205a7a"></path><path d="M409 263L411 439L501 308Z" fill="#00101c" stroke="#00101c"></path><path d="M683 203L609 119L630 225Z" fill="#1d4e6b" stroke="#1d4e6b"></path><path d="M609 119L465 115L487 227Z" fill="#205a7a" stroke="#205a7a"></path><path d="M520 600L594 529L523 467Z" fill="#0c2435" stroke="#0c2435"></path><path d="M523 467L594 529L590 421Z" fill="#0c2435" stroke="#0c2435"></path><path d="M411 439L439 510L523 467Z" fill="#081a28" stroke="#081a28"></path><path d="M712 530L772 378L732 361Z" fill="#277297" stroke="#277297"></path><path d="M830 313L802 222L698 320Z" fill="#00101c" stroke="#00101c"></path><path d="M478 0L422 107L465 115Z" fill="#246688" stroke="#246688"></path><path d="M465 115L422 107L420 217Z" fill="#081a28" stroke="#081a28"></path><path d="M420 217L290 260L409 263Z" fill="#112e42" stroke="#112e42"></path><path d="M802 222L704 114L683 203Z" fill="#00101c" stroke="#00101c"></path><path d="M683 203L704 114L609 119Z" fill="#0c2435" stroke="#0c2435"></path><path d="M609 119L478 0L465 115Z" fill="#1d4e6b" stroke="#1d4e6b"></path><path d="M290 260L323 421L409 263Z" fill="#00101c" stroke="#00101c"></path><path d="M409 263L323 421L411 439Z" fill="#205a7a" stroke="#205a7a"></path><path d="M411 439L302 468L439 510Z" fill="#112e42" stroke="#112e42"></path><path d="M830 313L698 320L732 361Z" fill="#1d4e6b" stroke="#1d4e6b"></path><path d="M290 184L290 260L420 217Z" fill="#205a7a" stroke="#205a7a"></path><path d="M594 529L712 530L590 421Z" fill="#19435d" stroke="#19435d"></path><path d="M900 337L830 313L900 388Z" fill="#297ea6" stroke="#297ea6"></path><path d="M772 378L830 313L732 361Z" fill="#246688" stroke="#246688"></path><path d="M439 510L520 600L523 467Z" fill="#00101c" stroke="#00101c"></path><path d="M594 529L613 600L712 530Z" fill="#00101c" stroke="#00101c"></path><path d="M437 600L520 600L439 510Z" fill="#081a28" stroke="#081a28"></path><path d="M520 600L613 600L594 529Z" fill="#0c2435" stroke="#0c2435"></path><path d="M422 107L290 184L420 217Z" fill="#277297" stroke="#277297"></path><path d="M209 362L302 468L323 421Z" fill="#246688" stroke="#246688"></path><path d="M323 421L302 468L411 439Z" fill="#19435d" stroke="#19435d"></path><path d="M273 600L437 600L439 510Z" fill="#00101c" stroke="#00101c"></path><path d="M669 0L609 119L704 114Z" fill="#19435d" stroke="#19435d"></path><path d="M669 0L602 0L609 119Z" fill="#15384f" stroke="#15384f"></path><path d="M266 77L237 161L290 184Z" fill="#0c2435" stroke="#0c2435"></path><path d="M290 184L237 267L290 260Z" fill="#205a7a" stroke="#205a7a"></path><path d="M290 260L209 362L323 421Z" fill="#15384f" stroke="#15384f"></path><path d="M602 0L478 0L609 119Z" fill="#297ea6" stroke="#297ea6"></path><path d="M775 600L835 492L712 530Z" fill="#1d4e6b" stroke="#1d4e6b"></path><path d="M712 530L835 492L772 378Z" fill="#1d4e6b" stroke="#1d4e6b"></path><path d="M777 0L669 0L704 114Z" fill="#1d4e6b" stroke="#1d4e6b"></path><path d="M613 600L737 600L712 530Z" fill="#205a7a" stroke="#205a7a"></path><path d="M478 0L420 0L422 107Z" fill="#246688" stroke="#246688"></path><path d="M900 132L808 83L802 222Z" fill="#297ea6" stroke="#297ea6"></path><path d="M802 222L808 83L704 114Z" fill="#1d4e6b" stroke="#1d4e6b"></path><path d="M237 267L209 362L290 260Z" fill="#112e42" stroke="#112e42"></path><path d="M900 388L830 313L772 378Z" fill="#205a7a" stroke="#205a7a"></path><path d="M830 313L900 231L802 222Z" fill="#112e42" stroke="#112e42"></path><path d="M290 184L237 161L237 267Z" fill="#205a7a" stroke="#205a7a"></path><path d="M237 267L103 282L209 362Z" fill="#246688" stroke="#246688"></path><path d="M266 77L290 184L422 107Z" fill="#112e42" stroke="#112e42"></path><path d="M835 492L900 388L772 378Z" fill="#0c2435" stroke="#0c2435"></path><path d="M900 337L900 231L830 313Z" fill="#00101c" stroke="#00101c"></path><path d="M737 600L775 600L712 530Z" fill="#277297" stroke="#277297"></path><path d="M835 492L900 472L900 388Z" fill="#297ea6" stroke="#297ea6"></path><path d="M328 0L266 77L422 107Z" fill="#0c2435" stroke="#0c2435"></path><path d="M900 600L900 472L835 492Z" fill="#0c2435" stroke="#0c2435"></path><path d="M900 0L777 0L808 83Z" fill="#297ea6" stroke="#297ea6"></path><path d="M808 83L777 0L704 114Z" fill="#15384f" stroke="#15384f"></path><path d="M420 0L328 0L422 107Z" fill="#081a28" stroke="#081a28"></path><path d="M900 231L900 132L802 222Z" fill="#15384f" stroke="#15384f"></path><path d="M302 468L273 600L439 510Z" fill="#205a7a" stroke="#205a7a"></path><path d="M178 509L273 600L302 468Z" fill="#277297" stroke="#277297"></path><path d="M102 474L178 509L209 362Z" fill="#277297" stroke="#277297"></path><path d="M209 362L178 509L302 468Z" fill="#297ea6" stroke="#297ea6"></path><path d="M266 77L165 95L237 161Z" fill="#081a28" stroke="#081a28"></path><path d="M237 161L103 282L237 267Z" fill="#15384f" stroke="#15384f"></path><path d="M173 0L165 95L266 77Z" fill="#246688" stroke="#246688"></path><path d="M775 600L900 600L835 492Z" fill="#112e42" stroke="#112e42"></path><path d="M62 208L103 282L237 161Z" fill="#277297" stroke="#277297"></path><path d="M117 600L184 600L178 509Z" fill="#205a7a" stroke="#205a7a"></path><path d="M178 509L184 600L273 600Z" fill="#1d4e6b" stroke="#1d4e6b"></path><path d="M900 132L900 0L808 83Z" fill="#0c2435" stroke="#0c2435"></path><path d="M68 372L102 474L209 362Z" fill="#112e42" stroke="#112e42"></path><path d="M103 282L68 372L209 362Z" fill="#1d4e6b" stroke="#1d4e6b"></path><path d="M0 330L68 372L103 282Z" fill="#00101c" stroke="#00101c"></path><path d="M328 0L173 0L266 77Z" fill="#15384f" stroke="#15384f"></path><path d="M165 95L62 208L237 161Z" fill="#15384f" stroke="#15384f"></path><path d="M106 82L62 208L165 95Z" fill="#246688" stroke="#246688"></path><path d="M173 0L106 82L165 95Z" fill="#15384f" stroke="#15384f"></path><path d="M0 492L117 600L102 474Z" fill="#00101c" stroke="#00101c"></path><path d="M102 474L117 600L178 509Z" fill="#00101c" stroke="#00101c"></path><path d="M62 208L0 330L103 282Z" fill="#246688" stroke="#246688"></path><path d="M68 372L0 439L102 474Z" fill="#1d4e6b" stroke="#1d4e6b"></path><path d="M0 184L0 330L62 208Z" fill="#1d4e6b" stroke="#1d4e6b"></path><path d="M0 330L0 439L68 372Z" fill="#15384f" stroke="#15384f"></path><path d="M173 0L81 0L106 82Z" fill="#00101c" stroke="#00101c"></path><path d="M106 82L0 184L62 208Z" fill="#112e42" stroke="#112e42"></path><path d="M0 71L0 184L106 82Z" fill="#0c2435" stroke="#0c2435"></path><path d="M0 439L0 492L102 474Z" fill="#112e42" stroke="#112e42"></path><path d="M81 0L0 71L106 82Z" fill="#0c2435" stroke="#0c2435"></path><path d="M0 492L0 600L117 600Z" fill="#297ea6" stroke="#297ea6"></path><path d="M81 0L0 0L0 71Z" fill="#297ea6" stroke="#297ea6"></path></g></svg>